<svg xmlns="http://www.w3.org/2000/svg" width="400" height="400" viewBox="0 0 200 200">
  <rect width="200" height="200" fill="#fff6f0" rx="24" />
  <g fill="none" stroke="#f48fb1" stroke-width="4" stroke-linecap="round">
    <path d="M70 80 C50 60, 50 30, 80 40 C100 30, 120 60, 100 90" />
    <path d="M130 85 C110 60, 115 30, 150 45 C170 40, 170 70, 145 95" />
    <path d="M90 110 C70 90, 60 70, 90 75 C110 70, 120 100, 105 125" />
  </g>
  <g fill="#ffcdd2" stroke="#f06292" stroke-width="3">
    <circle cx="82" cy="62" r="12" />
    <circle cx="138" cy="65" r="12" />
    <circle cx="98" cy="96" r="12" />
  </g>
  <path d="M92 110 L108 170" stroke="#8bc34a" stroke-width="6" />
  <path d="M75 180 L125 180 L108 170 L92 170 Z" fill="#8d6e63" />
  <text x="100" y="195" font-family="'Courier New', monospace" font-size="12" text-anchor="middle" fill="#a05a5a">
    Drop bouquets into src/assets/flowers
  </text>
</svg>
